<?xml version="1.0" encoding="utf-8"?>
<!-- Generator: Adobe Illustrator 24.1.0, SVG Export Plug-In . SVG Version: 6.00 Build 0)  -->
<svg version="1.1" id="Layer_1" xmlns="http://www.w3.org/2000/svg" xmlns:xlink="http://www.w3.org/1999/xlink" x="0px" y="0px"
	 viewBox="0 0 295.5 64.4" style="enable-background:new 0 0 295.5 64.4;" xml:space="preserve">
<style type="text/css">
	.st0{fill:#FFFFFF;}
</style>
<g>
	<path class="st0" d="M0,20.7V20c0.9,0,1.4-0.2,1.4-0.7V2.3c0-0.5-0.5-0.7-1.4-0.7V0.9h13.3c2.4,0,4.3,0.4,5.7,1.3
		C20.3,3.1,21,4.6,21,6.8c0,2.1-0.7,3.6-2.1,4.5c-1.4,0.9-3.3,1.3-5.7,1.3H5.7v6.7c0,0.5,0.4,0.7,1.2,0.7v0.7H0z M13.7,9.2
		c0.8,0,1.5-0.2,2.1-0.5c0.6-0.3,0.9-1,0.9-1.9c0-1-0.3-1.6-0.9-1.9c-0.6-0.3-1.3-0.5-2.1-0.5h-8v4.8H13.7z"/>
	<path class="st0" d="M48.2,0.7c1.4,0,2.8,0.2,4.2,0.6c1.4,0.4,2.7,1,3.9,1.9C57.6,4,58.5,5,59.3,6.3c0.8,1.3,1.1,2.8,1.1,4.5
		s-0.4,3.2-1.1,4.5c-0.8,1.3-1.7,2.3-2.9,3.1c-1.2,0.8-2.5,1.4-3.9,1.8c-1.4,0.4-2.8,0.6-4.2,0.6c-1.4,0-2.8-0.2-4.2-0.6
		c-1.4-0.4-2.7-1-3.9-1.8c-1.2-0.8-2.1-1.9-2.9-3.1c-0.8-1.3-1.1-2.8-1.1-4.5s0.4-3.2,1.1-4.5C38,5,38.9,4,40.1,3.2s2.5-1.5,3.9-1.9
		C45.5,0.9,46.9,0.7,48.2,0.7z M48.2,4.1c-1,0-1.9,0.2-2.9,0.5c-1,0.3-1.8,0.7-2.6,1.3S41.4,7.2,40.9,8c-0.5,0.8-0.7,1.8-0.7,2.8
		s0.2,2,0.7,2.8c0.5,0.8,1.1,1.5,1.9,2.1c0.8,0.6,1.6,1,2.6,1.3c1,0.3,1.9,0.5,2.9,0.5s1.9-0.2,2.9-0.5c1-0.3,1.8-0.7,2.6-1.3
		c0.8-0.6,1.4-1.3,1.9-2.1c0.5-0.8,0.7-1.8,0.7-2.8S56,8.8,55.6,8c-0.5-0.8-1.1-1.5-1.9-2.1c-0.8-0.6-1.6-1-2.6-1.3
		C50.1,4.3,49.2,4.1,48.2,4.1z"/>
	<path class="st0" d="M77.3,20c0.7,0,1-0.2,1-0.7V2.3c0-0.5-0.3-0.7-1-0.7V0.9h6.3v0.7c-0.7,0-1,0.2-1,0.7v17.1c0,0.5,0.3,0.7,1,0.7
		v0.7h-6.3V20z"/>
	<path class="st0" d="M101.5,20c0.5,0,0.7-0.2,0.7-0.7V2.3c0-0.5-0.2-0.7-0.7-0.7V0.9h6.4v0.7c-0.2,0-0.3,0.1-0.3,0.4
		c0,0.2,0.3,0.6,0.8,1.1l10.8,11.2v-12c0-0.5-0.3-0.7-1-0.7V0.9h5.7v0.7c-0.5,0-0.7,0.2-0.7,0.7v17.1c0,0.5,0.2,0.7,0.7,0.7v0.7
		h-6.1V20c0.3,0,0.5-0.1,0.5-0.3c0-0.2-0.2-0.5-0.6-0.9l-11.5-12v12.5c0,0.5,0.3,0.7,0.9,0.7v0.7h-5.6V20z"/>
	<path class="st0" d="M152.3,19.4c0,0.5,0.3,0.7,0.8,0.7v0.7h-5.8V20c0.2,0,0.3-0.1,0.5-0.2c0.1-0.1,0.2-0.3,0.2-0.5v-15h-6.2
		c-0.2,0-0.4,0.1-0.7,0.2c-0.2,0.1-0.3,0.4-0.3,0.7h-0.7V0h0.7c0,0.4,0.1,0.6,0.3,0.7c0.2,0.1,0.4,0.2,0.7,0.2h16.7
		c0.2,0,0.4-0.1,0.7-0.2c0.2-0.1,0.3-0.4,0.3-0.7h0.7v5.3h-0.7c0-0.4-0.1-0.6-0.3-0.7c-0.2-0.1-0.4-0.2-0.7-0.2h-6.2V19.4z"/>
	<path class="st0" d="M210.7,0.9c1.2,0,2.3,0.1,3.4,0.3s2,0.5,2.9,0.9c0.8,0.4,1.5,1,2,1.6c0.5,0.7,0.8,1.5,0.8,2.5
		c0,1.2-0.4,2.1-1.1,2.7c-0.7,0.6-1.6,1.1-2.6,1.5v0.1c1.2,0.4,2.2,0.9,3,1.7c0.8,0.8,1.2,1.9,1.2,3.3c0,0.8-0.2,1.5-0.5,2.1
		s-0.8,1.2-1.5,1.7c-0.6,0.5-1.4,0.8-2.4,1.1c-0.9,0.3-2,0.4-3.2,0.4H199V20c0.7,0,1.1-0.2,1.1-0.7V2.3c0-0.5-0.4-0.7-1.1-0.7V0.9
		H210.7z M211.5,8.7c1.1,0,2.1-0.1,2.8-0.4c0.7-0.3,1.1-0.9,1.1-1.8s-0.4-1.5-1.1-1.8c-0.7-0.3-1.7-0.4-2.8-0.4h-7.2v4.5H211.5z
		 M211.5,17.3c1.6,0,2.7-0.2,3.4-0.7c0.7-0.5,1-1.1,1-1.9c0-0.8-0.3-1.5-1-1.9c-0.7-0.5-1.8-0.7-3.4-0.7h-7.2v5.4H211.5z"/>
	<path class="st0" d="M235.1,20c0.3-0.1,0.6-0.2,0.8-0.5c0.2-0.3,0.4-0.6,0.5-0.9l7-14.7c0.2-0.3,0.3-0.6,0.5-0.9
		c0.1-0.3,0.2-0.5,0.2-0.7c0-0.3-0.1-0.4-0.3-0.5c-0.2-0.1-0.4-0.2-0.6-0.2V0.9h6.4v0.7c-0.2,0.1-0.4,0.1-0.5,0.2
		c-0.2,0.1-0.3,0.3-0.3,0.5c0,0.2,0,0.4,0.1,0.6c0.1,0.2,0.2,0.5,0.4,0.8l7.8,15.3c0.1,0.3,0.3,0.5,0.5,0.6c0.2,0.1,0.5,0.3,0.7,0.4
		v0.7h-6.6V20c0.1,0,0.2,0,0.4-0.1c0.1-0.1,0.2-0.2,0.2-0.3c0-0.3-0.1-0.6-0.3-1l-1.4-2.8h-9.2l-1.4,2.7c-0.3,0.5-0.4,0.9-0.4,1.1
		c0,0.3,0.2,0.4,0.7,0.4v0.7h-5.4V20z M249.3,13l-3.2-7l-3.5,7H249.3z"/>
	<path class="st0" d="M286.7,0.9c1.2,0,2.3,0.1,3.3,0.3c1,0.2,1.8,0.6,2.5,1c0.7,0.5,1.2,1.1,1.6,1.8s0.6,1.7,0.6,2.7
		c0,1.7-0.5,2.9-1.5,3.8c-1,0.9-2.3,1.5-4,1.8l5,7.2c0.2,0.3,0.4,0.4,0.6,0.5c0.2,0.1,0.5,0.1,0.7,0.1v0.7h-7V20
		c0.2,0,0.4,0,0.6-0.1c0.2-0.1,0.2-0.2,0.2-0.3s0-0.3-0.1-0.4c-0.1-0.2-0.3-0.4-0.5-0.7l-4.1-5.9h-5.4v6.7c0,0.2,0.1,0.4,0.2,0.5
		c0.2,0.1,0.5,0.2,0.9,0.2v0.7h-6.5V20c0.7,0,1.1-0.2,1.1-0.7V2.3c0-0.5-0.4-0.7-1.1-0.7V0.9H286.7z M285.7,9.7
		c0.9,0,1.7-0.1,2.3-0.2s1.1-0.3,1.4-0.6s0.6-0.5,0.8-0.9c0.2-0.3,0.2-0.7,0.2-1.1s-0.1-0.8-0.2-1.1c-0.2-0.3-0.4-0.6-0.8-0.9
		c-0.4-0.3-0.8-0.4-1.4-0.6s-1.4-0.2-2.3-0.2h-6.5v5.6H285.7z"/>
</g>
<g>
	<path class="st0" d="M160.8,64.4c-1,0-1.9-0.1-2.7-0.3c-2.5-0.7-3.8-2.3-3.8-4.8c0-1.9,0.4-3.7,1.3-5.6c1.6-3.4,3-6.1,4.1-8.1
		c1.4-2.5,2.7-4.6,3.8-6.4c1.1-1.8,2-3.4,2.8-4.6c2.4-3.9,4.2-6.9,5.4-8.9c2.2-3.6,4.9-8.5,8.4-14.6l1.3-2.3
		c0.2-0.2,0.3-0.3,0.4-0.5c0.1-0.2,0.2-0.4,0.4-0.6c0.4-0.5,0.8-0.6,1.4-0.4c0.5,0.3,0.8,0.7,0.8,1.1c0,0.3-0.1,0.5-0.2,0.8
		c-0.1,0.3-0.2,0.6-0.3,0.8l-2,6c-0.1,0.6-0.1,1.1-0.1,1.4c0,0.5,0,0.9,0.1,1.1c0.1,0.1,0.1,0.3,0.1,0.5c0,0.3-0.1,0.6-0.4,0.8
		c-0.3,0.2-0.5,0.2-0.7,0.2c-0.3,0-0.6-0.1-0.8-0.3c-0.6-0.9-0.9-1.3-1-1.4l-0.5,0.6l-14.1,23.7c-1.8,2.9-3.6,6.3-5.7,10.3
		c-0.9,1.9-1.5,3.7-1.9,5.5c-0.1,0.6-0.2,1-0.2,1.2c0,0.9,0.3,1.5,1,1.8c0.7,0.4,1.7,0.6,3.2,0.6c1.2,0,2.7-0.2,4.5-0.7
		c4.1-1.1,8.6-2.8,13.4-5.3c0.5-0.2,1.8-0.9,3.9-2l2.3-1.3c0.1,0,0.3-0.2,0.5-0.3c0.2-0.1,0.4-0.2,0.6-0.2c0.4,0,0.7,0.1,1,0.5
		c0,0.1,0.1,0.2,0.1,0.4c0,0.3-0.1,0.5-0.2,0.7c0.1,0-0.3,0.2-1.1,0.8c-3.7,2.6-8.3,5-13.9,7.2c-3.7,1.4-6.7,2.3-9.2,2.6
		C162.1,64.3,161.3,64.4,160.8,64.4z"/>
	<path class="st0" d="M175.8,45.9c-0.5-0.5-0.7-1.3-0.7-2.3c0.2-1,0.5-1.9,1.1-2.8c0.6-0.9,1.3-1.6,2.3-2.2c0.5-0.3,1-0.4,1.7-0.5
		c0.7-0.1,1.1-0.1,1.2-0.1h0.1c0.6,0,1.1,0.4,1.5,1.1c0.4,0.7,0.6,1.3,0.6,1.8c0,0.5-0.1,0.9-0.4,1.4c-1.3,2.3-3.1,3.6-5.5,4
		C176.9,46.6,176.3,46.4,175.8,45.9z M181,42c0.3-0.5,0.4-0.8,0.4-1c0-0.3-0.1-0.6-0.3-0.8c-0.2,0.2-0.5,0.5-0.9,0.8
		c-0.1,0-0.2,0.1-0.3,0.3c-0.2,0.1-0.3,0.2-0.4,0.2c-0.6,0-1.1,0.3-1.4,0.9c-0.1,0.1-0.2,0.3-0.4,0.7c-0.2,0.4-0.3,0.8-0.2,1.2
		C178.8,44.1,180,43.3,181,42z"/>
	<path class="st0" d="M184.4,45.7c0-0.2,0-0.6,0.2-1.1c0.3-1.7,1.1-3.3,2.2-4.9c0.2-0.3,0.5-0.6,0.8-0.8c0.3-0.2,0.6-0.3,0.8-0.3
		c0.3,0,0.5,0.1,0.7,0.2c0.5,0.3,0.7,0.7,0.5,1.3c-0.2,0.9-0.5,1.5-0.8,1.7c-0.5,0.3-0.8,0.7-1,1.1c-0.2,0.4-0.4,0.9-0.5,1.3
		c-0.1,0.4-0.2,0.8-0.3,1l0.2,0.2c0.2-0.1,0.4-0.2,0.6-0.4c0.3-0.2,0.5-0.3,0.8-0.5l3.7-2.7c0.8-0.6,1.4-1,2-1.2
		c0.2-0.1,0.5-0.2,0.8-0.2c0.5,0,0.8,0.2,1.1,0.5c0.3,0.3,0.4,0.8,0.4,1.3l-0.1,1.4c0,0.5,0.2,0.9,0.4,1.1c0.2,0.2,0.6,0.3,1.1,0.3
		c0.2,0,0.6,0,1.1-0.2c1.9-0.3,4.2-1.1,7-2.3l2.6-1.2c0.5-0.2,0.9-0.3,1.1-0.2c0.5,0.1,0.8,0.3,0.9,0.6l0.1,0.2
		c0,0.3-0.1,0.5-0.3,0.7c-0.1,0.2-0.3,0.4-0.6,0.5c-2,1.1-3.8,1.9-5.4,2.5c-1.6,0.6-3.1,1.1-4.7,1.5c-0.7,0.2-1.4,0.2-2.1,0.2
		c-2,0-3.1-1-3.4-2.9l-0.1-1.1c-0.4,0.3-0.7,0.5-1,0.8c-0.3,0.3-0.7,0.5-1.1,0.8c-2.1,1.5-3.3,2.3-3.7,2.5c-0.6,0.4-1.1,0.6-1.7,0.6
		c-0.5,0-0.9-0.2-1.3-0.5C184.7,47.1,184.4,46.5,184.4,45.7z"/>
	<path class="st0" d="M216,46.4c-0.4-0.4-0.6-1-0.6-1.7c0-0.4,0.2-1.2,0.4-2.3c-0.8,0.2-1.7,0.6-2.9,1.4c-0.1,0-0.5,0.3-1.3,0.8
		l-1.3,0.9c-0.4,0.3-0.8,0.5-1.1,0.5c-0.2,0-0.5-0.1-0.8-0.3c-0.3-0.2-0.4-0.6-0.4-0.9c0-0.2,0-0.4,0.2-0.8l2-4.7
		c0.3-0.8,0.8-1.1,1.4-0.8c0.5,0.1,0.8,0.4,0.8,1l-0.1,0.7c-0.1,0.3-0.2,0.6-0.3,0.9c-0.1,0.3-0.2,0.6-0.3,0.9l0.9-0.3
		c0.3-0.2,0.8-0.4,1.4-0.6c0.7-0.3,1.3-0.5,1.8-0.7c0.2,0,0.4-0.1,0.8-0.1c0.6,0,1.1,0.2,1.4,0.6c0.3,0.4,0.4,1,0.3,1.7
		c-0.1,0.4-0.1,0.8-0.3,1.2c-0.1,0.5-0.2,0.9-0.3,1.2c1-0.1,1.5-0.2,1.6-0.2c2.2-0.7,4.8-1.6,7.8-2.6c0.8-0.4,1.3-0.6,1.5-0.6
		c0.1,0,0.3-0.1,0.5-0.1c0.3,0,0.6,0.2,0.8,0.5c0.1,0.2,0.2,0.4,0.2,0.5c0,0.3-0.2,0.5-0.6,0.8c-0.6,0.4-1.1,0.7-1.4,0.8
		c-1.9,0.7-4.8,1.7-8.6,3c-0.4,0.1-0.9,0.2-1.7,0.3C217,47,216.4,46.8,216,46.4z"/>
	<path class="st0" d="M219.8,60.8c0-0.6,0.2-1.2,0.5-1.7c0.9-1.7,2.1-3.2,3.7-4.6c2.5-2,4.7-3.6,6.7-5c1-0.9,1.7-1.7,2-2.4
		c0.4-1,1.1-2.5,2-4.5l-0.3-0.2l-2.5,1.9c-0.7,0.5-1.3,0.9-1.9,1.1c-0.3,0.1-0.5,0.1-0.7,0.1c-0.5,0-0.9-0.2-1.1-0.6
		c-0.3-0.4-0.3-0.9-0.2-1.5l0.5-1.1c1-1.8,2.2-3.1,3.5-4.1c0.5-0.4,1-0.7,1.6-0.9c0.5-0.2,0.9-0.2,1.3,0c1.1,0.6,2,1.1,2.6,1.7
		c0.2,0.1,0.4,0.4,0.4,0.8c0,0.4-0.1,0.7-0.2,1l-1.7,4.3l-0.5,1.2c0.2-0.1,0.4-0.2,0.6-0.3c0.2-0.1,0.4-0.2,0.5-0.3l5.5-3.6
		c0.6-0.4,1.1-0.7,1.4-0.8h0.2c0.4,0,0.7,0.1,0.8,0.2c0.2,0.2,0.2,0.3,0.2,0.5c0,0.2-0.1,0.4-0.3,0.6c-0.4,0.5-0.7,0.8-1.1,1
		l-1.7,1.1c-1.8,1.3-3.5,2.4-5,3.3c-2.1,1.3-3.7,2.9-4.8,4.9c-1.3,2.5-2.9,4.7-5.1,6.7c-1,0.9-2.1,1.7-3.5,2.6
		c-0.6,0.4-1.1,0.5-1.6,0.5c-0.5,0-1-0.2-1.4-0.5C220,61.7,219.8,61.3,219.8,60.8z M225.7,57.6c1-1.1,2.1-2.5,3.2-4.2
		c-1.5,0.8-3,1.9-4.3,3.4c-1.4,1.4-2.2,2.7-2.5,3.7C223.5,59.7,224.7,58.7,225.7,57.6z M234.1,39.4c-0.6,0.3-1,0.6-1.5,1
		c-0.4,0.4-0.9,0.9-1.3,1.6C233,41.1,233.9,40.3,234.1,39.4z"/>
	<path class="st0" d="M244.9,46.9c-0.9-0.3-1.6-0.8-2.1-1.4c-0.5-0.7-0.8-1.4-0.8-2.3c0-0.3,0-0.7,0.2-1.3c0.6-1.9,1.6-3.4,3.2-4.4
		c0.7-0.4,1.3-0.6,2-0.6c0.5,0,0.9,0.1,1.3,0.3c0.6,0.2,1,0.6,1.2,1.1c0.3,0.6,0.4,1.1,0.3,1.7c-0.2,0.9-0.7,1.6-1.5,2.3
		c-0.8,0.7-1.6,1.1-2.4,1.1c-0.3,0-0.7,0-1.1-0.2c-0.5-0.1-0.8-0.2-1-0.2c0,0.9,0.5,1.4,1.4,1.7c0.7,0.2,1.4,0.3,2.2,0.3
		c0.5,0,1.2,0,2-0.2c2.6-0.5,4.7-1.4,6.6-2.6c0.4-0.3,0.7-0.5,1-0.5h0.2c0.5,0,0.7,0.1,0.8,0.2c0.1,0.2,0.1,0.3,0.1,0.5
		c0,0.2,0,0.4-0.1,0.5c-0.1,0.3-0.4,0.6-0.8,0.9c-3.2,2.1-6.6,3.2-10,3.2C246.6,47.3,245.7,47.2,244.9,46.9z M246.5,41.2
		c0.5,0,0.9-0.3,1.3-1c0.1-0.2,0.2-0.3,0.2-0.5c0-0.2,0-0.3,0-0.4c-0.4-0.3-0.7-0.3-1-0.2c-0.8,0.2-1.4,0.7-1.8,1.6
		C245.8,41,246.2,41.2,246.5,41.2z"/>
</g>
</svg>
